<svg width="455" height="58" viewBox="0 0 455 58" fill="none" xmlns="http://www.w3.org/2000/svg">
<rect y="0.785645" width="455.005" height="57" rx="12.6157" fill="#F4F4F4"/>
<path d="M159.876 32.5551H163.556V34.3311H157.636V23.1631H159.876V32.5551ZM168.916 34.4751C168.063 34.4751 167.295 34.2884 166.612 33.9151C165.929 33.5311 165.391 32.9924 164.996 32.2991C164.612 31.6057 164.42 30.8057 164.42 29.8991C164.42 28.9924 164.617 28.1924 165.012 27.4991C165.417 26.8057 165.967 26.2724 166.66 25.8991C167.353 25.5151 168.127 25.3231 168.98 25.3231C169.833 25.3231 170.607 25.5151 171.3 25.8991C171.993 26.2724 172.537 26.8057 172.932 27.4991C173.337 28.1924 173.54 28.9924 173.54 29.8991C173.54 30.8057 173.332 31.6057 172.916 32.2991C172.511 32.9924 171.956 33.5311 171.252 33.9151C170.559 34.2884 169.78 34.4751 168.916 34.4751ZM168.916 32.5231C169.321 32.5231 169.7 32.4271 170.052 32.2351C170.415 32.0324 170.703 31.7337 170.916 31.3391C171.129 30.9444 171.236 30.4644 171.236 29.8991C171.236 29.0564 171.012 28.4111 170.564 27.9631C170.127 27.5044 169.588 27.2751 168.948 27.2751C168.308 27.2751 167.769 27.5044 167.332 27.9631C166.905 28.4111 166.692 29.0564 166.692 29.8991C166.692 30.7417 166.9 31.3924 167.316 31.8511C167.743 32.2991 168.276 32.5231 168.916 32.5231ZM178.655 25.3231C179.317 25.3231 179.898 25.4564 180.399 25.7231C180.901 25.9791 181.295 26.3151 181.583 26.7311V25.4671H183.839V34.3951C183.839 35.2164 183.674 35.9471 183.343 36.5871C183.013 37.2377 182.517 37.7497 181.855 38.1231C181.194 38.5071 180.394 38.6991 179.455 38.6991C178.197 38.6991 177.162 38.4057 176.351 37.8191C175.551 37.2324 175.098 36.4324 174.991 35.4191H177.215C177.333 35.8244 177.583 36.1444 177.967 36.3791C178.362 36.6244 178.837 36.7471 179.391 36.7471C180.042 36.7471 180.57 36.5497 180.975 36.1551C181.381 35.7711 181.583 35.1844 181.583 34.3951V33.0191C181.295 33.4351 180.895 33.7817 180.383 34.0591C179.882 34.3364 179.306 34.4751 178.655 34.4751C177.909 34.4751 177.226 34.2831 176.607 33.8991C175.989 33.5151 175.498 32.9764 175.135 32.2831C174.783 31.5791 174.607 30.7737 174.607 29.8671C174.607 28.9711 174.783 28.1764 175.135 27.4831C175.498 26.7897 175.983 26.2564 176.591 25.8831C177.21 25.5097 177.898 25.3231 178.655 25.3231ZM181.583 29.8991C181.583 29.3551 181.477 28.8911 181.263 28.5071C181.05 28.1124 180.762 27.8137 180.399 27.6111C180.037 27.3977 179.647 27.2911 179.231 27.2911C178.815 27.2911 178.431 27.3924 178.079 27.5951C177.727 27.7977 177.439 28.0964 177.215 28.4911C177.002 28.8751 176.895 29.3337 176.895 29.8671C176.895 30.4004 177.002 30.8697 177.215 31.2751C177.439 31.6697 177.727 31.9737 178.079 32.1871C178.442 32.4004 178.826 32.5071 179.231 32.5071C179.647 32.5071 180.037 32.4057 180.399 32.2031C180.762 31.9897 181.05 31.6911 181.263 31.3071C181.477 30.9124 181.583 30.4431 181.583 29.8991ZM190.975 24.4111C190.581 24.4111 190.25 24.2884 189.983 24.0431C189.727 23.7871 189.599 23.4724 189.599 23.0991C189.599 22.7257 189.727 22.4164 189.983 22.1711C190.25 21.9151 190.581 21.7871 190.975 21.7871C191.37 21.7871 191.695 21.9151 191.951 22.1711C192.218 22.4164 192.351 22.7257 192.351 23.0991C192.351 23.4724 192.218 23.7871 191.951 24.0431C191.695 24.2884 191.37 24.4111 190.975 24.4111ZM192.079 25.4671V34.3311H189.839V25.4671H192.079ZM199.205 25.3391C200.261 25.3391 201.114 25.6751 201.765 26.3471C202.415 27.0084 202.741 27.9364 202.741 29.1311V34.3311H200.501V29.4351C200.501 28.7311 200.325 28.1924 199.973 27.8191C199.621 27.4351 199.141 27.2431 198.533 27.2431C197.914 27.2431 197.423 27.4351 197.061 27.8191C196.709 28.1924 196.533 28.7311 196.533 29.4351V34.3311H194.293V25.4671H196.533V26.5711C196.831 26.1871 197.21 25.8884 197.669 25.6751C198.138 25.4511 198.65 25.3391 199.205 25.3391ZM220.971 25.4671L218.379 34.3311H215.963L214.347 28.1391L212.731 34.3311H210.299L207.691 25.4671H209.963L211.531 32.2191L213.227 25.4671H215.595L217.259 32.2031L218.827 25.4671H220.971ZM223.319 24.4111C222.925 24.4111 222.594 24.2884 222.327 24.0431C222.071 23.7871 221.943 23.4724 221.943 23.0991C221.943 22.7257 222.071 22.4164 222.327 22.1711C222.594 21.9151 222.925 21.7871 223.319 21.7871C223.714 21.7871 224.039 21.9151 224.295 22.1711C224.562 22.4164 224.695 22.7257 224.695 23.0991C224.695 23.4724 224.562 23.7871 224.295 24.0431C224.039 24.2884 223.714 24.4111 223.319 24.4111ZM224.423 25.4671V34.3311H222.183V25.4671H224.423ZM229.244 27.3071V31.5951C229.244 31.8937 229.314 32.1124 229.452 32.2511C229.602 32.3791 229.847 32.4431 230.188 32.4431H231.228V34.3311H229.82C227.932 34.3311 226.988 33.4137 226.988 31.5791V27.3071H225.932V25.4671H226.988V23.2751H229.244V25.4671H231.228V27.3071H229.244ZM237.831 25.3391C238.503 25.3391 239.101 25.4884 239.623 25.7871C240.146 26.0751 240.551 26.5071 240.839 27.0831C241.138 27.6484 241.287 28.3311 241.287 29.1311V34.3311H239.047V29.4351C239.047 28.7311 238.871 28.1924 238.519 27.8191C238.167 27.4351 237.687 27.2431 237.079 27.2431C236.461 27.2431 235.97 27.4351 235.607 27.8191C235.255 28.1924 235.079 28.7311 235.079 29.4351V34.3311H232.839V22.4911H235.079V26.5711C235.367 26.1871 235.751 25.8884 236.231 25.6751C236.711 25.4511 237.245 25.3391 237.831 25.3391ZM250.702 25.3231C251.363 25.3231 251.945 25.4564 252.446 25.7231C252.947 25.9791 253.342 26.3151 253.63 26.7311V25.4671H255.886V34.3951C255.886 35.2164 255.721 35.9471 255.39 36.5871C255.059 37.2377 254.563 37.7497 253.902 38.1231C253.241 38.5071 252.441 38.6991 251.502 38.6991C250.243 38.6991 249.209 38.4057 248.398 37.8191C247.598 37.2324 247.145 36.4324 247.038 35.4191H249.262C249.379 35.8244 249.63 36.1444 250.014 36.3791C250.409 36.6244 250.883 36.7471 251.438 36.7471C252.089 36.7471 252.617 36.5497 253.022 36.1551C253.427 35.7711 253.63 35.1844 253.63 34.3951V33.0191C253.342 33.4351 252.942 33.7817 252.43 34.0591C251.929 34.3364 251.353 34.4751 250.702 34.4751C249.955 34.4751 249.273 34.2831 248.654 33.8991C248.035 33.5151 247.545 32.9764 247.182 32.2831C246.83 31.5791 246.654 30.7737 246.654 29.8671C246.654 28.9711 246.83 28.1764 247.182 27.4831C247.545 26.7897 248.03 26.2564 248.638 25.8831C249.257 25.5097 249.945 25.3231 250.702 25.3231ZM253.63 29.8991C253.63 29.3551 253.523 28.8911 253.31 28.5071C253.097 28.1124 252.809 27.8137 252.446 27.6111C252.083 27.3977 251.694 27.2911 251.278 27.2911C250.862 27.2911 250.478 27.3924 250.126 27.5951C249.774 27.7977 249.486 28.0964 249.262 28.4911C249.049 28.8751 248.942 29.3337 248.942 29.8671C248.942 30.4004 249.049 30.8697 249.262 31.2751C249.486 31.6697 249.774 31.9737 250.126 32.1871C250.489 32.4004 250.873 32.5071 251.278 32.5071C251.694 32.5071 252.083 32.4057 252.446 32.2031C252.809 31.9897 253.097 31.6911 253.31 31.3071C253.523 30.9124 253.63 30.4431 253.63 29.8991ZM262.01 34.4751C261.157 34.4751 260.389 34.2884 259.706 33.9151C259.023 33.5311 258.485 32.9924 258.09 32.2991C257.706 31.6057 257.514 30.8057 257.514 29.8991C257.514 28.9924 257.711 28.1924 258.106 27.4991C258.511 26.8057 259.061 26.2724 259.754 25.8991C260.447 25.5151 261.221 25.3231 262.074 25.3231C262.927 25.3231 263.701 25.5151 264.394 25.8991C265.087 26.2724 265.631 26.8057 266.026 27.4991C266.431 28.1924 266.634 28.9924 266.634 29.8991C266.634 30.8057 266.426 31.6057 266.01 32.2991C265.605 32.9924 265.05 33.5311 264.346 33.9151C263.653 34.2884 262.874 34.4751 262.01 34.4751ZM262.01 32.5231C262.415 32.5231 262.794 32.4271 263.146 32.2351C263.509 32.0324 263.797 31.7337 264.01 31.3391C264.223 30.9444 264.33 30.4644 264.33 29.8991C264.33 29.0564 264.106 28.4111 263.658 27.9631C263.221 27.5044 262.682 27.2751 262.042 27.2751C261.402 27.2751 260.863 27.5044 260.426 27.9631C259.999 28.4111 259.786 29.0564 259.786 29.8991C259.786 30.7417 259.994 31.3924 260.41 31.8511C260.837 32.2991 261.37 32.5231 262.01 32.5231ZM272.213 34.4751C271.36 34.4751 270.592 34.2884 269.909 33.9151C269.226 33.5311 268.688 32.9924 268.293 32.2991C267.909 31.6057 267.717 30.8057 267.717 29.8991C267.717 28.9924 267.914 28.1924 268.309 27.4991C268.714 26.8057 269.264 26.2724 269.957 25.8991C270.65 25.5151 271.424 25.3231 272.277 25.3231C273.13 25.3231 273.904 25.5151 274.597 25.8991C275.29 26.2724 275.834 26.8057 276.229 27.4991C276.634 28.1924 276.837 28.9924 276.837 29.8991C276.837 30.8057 276.629 31.6057 276.213 32.2991C275.808 32.9924 275.253 33.5311 274.549 33.9151C273.856 34.2884 273.077 34.4751 272.213 34.4751ZM272.213 32.5231C272.618 32.5231 272.997 32.4271 273.349 32.2351C273.712 32.0324 274 31.7337 274.213 31.3391C274.426 30.9444 274.533 30.4644 274.533 29.8991C274.533 29.0564 274.309 28.4111 273.861 27.9631C273.424 27.5044 272.885 27.2751 272.245 27.2751C271.605 27.2751 271.066 27.5044 270.629 27.9631C270.202 28.4111 269.989 29.0564 269.989 29.8991C269.989 30.7417 270.197 31.3924 270.613 31.8511C271.04 32.2991 271.573 32.5231 272.213 32.5231ZM281.952 25.3231C282.613 25.3231 283.195 25.4564 283.696 25.7231C284.197 25.9791 284.592 26.3151 284.88 26.7311V25.4671H287.136V34.3951C287.136 35.2164 286.971 35.9471 286.64 36.5871C286.309 37.2377 285.813 37.7497 285.152 38.1231C284.491 38.5071 283.691 38.6991 282.752 38.6991C281.493 38.6991 280.459 38.4057 279.648 37.8191C278.848 37.2324 278.395 36.4324 278.288 35.4191H280.512C280.629 35.8244 280.88 36.1444 281.264 36.3791C281.659 36.6244 282.133 36.7471 282.688 36.7471C283.339 36.7471 283.867 36.5497 284.272 36.1551C284.677 35.7711 284.88 35.1844 284.88 34.3951V33.0191C284.592 33.4351 284.192 33.7817 283.68 34.0591C283.179 34.3364 282.603 34.4751 281.952 34.4751C281.205 34.4751 280.523 34.2831 279.904 33.8991C279.285 33.5151 278.795 32.9764 278.432 32.2831C278.08 31.5791 277.904 30.7737 277.904 29.8671C277.904 28.9711 278.08 28.1764 278.432 27.4831C278.795 26.7897 279.28 26.2564 279.888 25.8831C280.507 25.5097 281.195 25.3231 281.952 25.3231ZM284.88 29.8991C284.88 29.3551 284.773 28.8911 284.56 28.5071C284.347 28.1124 284.059 27.8137 283.696 27.6111C283.333 27.3977 282.944 27.2911 282.528 27.2911C282.112 27.2911 281.728 27.3924 281.376 27.5951C281.024 27.7977 280.736 28.0964 280.512 28.4911C280.299 28.8751 280.192 29.3337 280.192 29.8671C280.192 30.4004 280.299 30.8697 280.512 31.2751C280.736 31.6697 281.024 31.9737 281.376 32.1871C281.739 32.4004 282.123 32.5071 282.528 32.5071C282.944 32.5071 283.333 32.4057 283.696 32.2031C284.059 31.9897 284.347 31.6911 284.56 31.3071C284.773 30.9124 284.88 30.4431 284.88 29.8991ZM291.564 22.4911V34.3311H289.324V22.4911H291.564ZM302.017 29.7071C302.017 30.0271 301.996 30.3151 301.953 30.5711H295.473C295.526 31.2111 295.75 31.7124 296.145 32.0751C296.54 32.4377 297.025 32.6191 297.601 32.6191C298.433 32.6191 299.025 32.2617 299.377 31.5471H301.793C301.537 32.4004 301.046 33.1044 300.321 33.6591C299.596 34.2031 298.705 34.4751 297.649 34.4751C296.796 34.4751 296.028 34.2884 295.345 33.9151C294.673 33.5311 294.145 32.9924 293.761 32.2991C293.388 31.6057 293.201 30.8057 293.201 29.8991C293.201 28.9817 293.388 28.1764 293.761 27.4831C294.134 26.7897 294.657 26.2564 295.329 25.8831C296.001 25.5097 296.774 25.3231 297.649 25.3231C298.492 25.3231 299.244 25.5044 299.905 25.8671C300.577 26.2297 301.094 26.7471 301.457 27.4191C301.83 28.0804 302.017 28.8431 302.017 29.7071ZM299.697 29.0671C299.686 28.4911 299.478 28.0324 299.073 27.6911C298.668 27.3391 298.172 27.1631 297.585 27.1631C297.03 27.1631 296.561 27.3337 296.177 27.6751C295.804 28.0057 295.574 28.4697 295.489 29.0671H299.697Z" fill="#323232"/>
<path d="M142.205 29.9338C142.205 37.5176 137.147 42.9148 129.678 42.9148C122.517 42.9148 116.734 36.9763 116.734 29.6229C116.734 22.2695 122.517 16.3311 129.678 16.3311C133.165 16.3311 136.098 17.6442 138.358 19.8094L134.835 23.2878C130.226 18.7214 121.656 22.1516 121.656 29.6229C121.656 34.259 125.263 38.0161 129.678 38.0161C134.804 38.0161 136.725 34.2429 137.027 32.2866H129.678V27.7149H142.001C142.122 28.3956 142.205 29.0494 142.205 29.9338Z" fill="black"/>
</svg>
